<svg xmlns="http://www.w3.org/2000/svg" xmlns:xlink="http://www.w3.org/1999/xlink" width="500" zoomAndPan="magnify" viewBox="0 0 375 374.999991" height="500" preserveAspectRatio="xMidYMid meet" version="1.0"><path fill="#ffffff" d="M 154.582031 3.804688 C 148.816406 4.824219 143.097656 6.113281 137.449219 7.675781 L 137.449219 125.160156 L 42.09375 70.136719 C 37.660156 75.617188 33.476562 81.367188 29.609375 87.453125 C 28.085938 89.84375 26.660156 92.269531 25.253906 94.699219 L 129.011719 154.574219 L 97.035156 154.574219 L 17.90625 108.917969 C 16.285156 112.402344 14.753906 115.925781 13.367188 119.464844 L 74.191406 154.574219 L 3.4375 154.574219 C 2.765625 158.347656 2.175781 162.125 1.742188 165.910156 L 154.582031 165.910156 L 154.582031 3.804688 " fill-opacity="1" fill-rule="nonzero"/><path fill="#ffffff" d="M 219.679688 371.070312 C 225.441406 370.046875 231.15625 368.761719 236.808594 367.207031 L 236.808594 251.042969 L 331.421875 305.636719 C 336.113281 299.894531 340.558594 293.84375 344.640625 287.421875 C 345.957031 285.355469 347.175781 283.261719 348.398438 281.171875 L 242.929688 220.304688 L 274.90625 220.304688 L 355.84375 267.007812 C 357.496094 263.53125 359.035156 260.019531 360.445312 256.484375 L 297.757812 220.304688 L 370.808594 220.304688 C 371.484375 216.542969 372.074219 212.769531 372.511719 208.984375 L 219.679688 208.984375 L 219.679688 371.070312 " fill-opacity="1" fill-rule="nonzero"/><path fill="#ffffff" d="M 1.796875 208.984375 C 2.25 212.78125 2.796875 216.554688 3.46875 220.304688 L 69.640625 220.304688 L 12.539062 253.265625 C 16.027344 262.535156 20.285156 271.535156 25.246094 280.191406 L 129.023438 220.304688 L 137.449219 220.304688 L 137.449219 233.910156 L 33.75 293.738281 C 35.925781 296.875 38.242188 299.9375 40.621094 302.949219 L 137.449219 247.078125 L 137.449219 367.238281 C 143.117188 368.8125 148.839844 370.082031 154.582031 371.09375 L 154.582031 208.984375 L 1.796875 208.984375 " fill-opacity="1" fill-rule="nonzero"/><path fill="#ffffff" d="M 372.457031 165.910156 C 372.003906 162.109375 371.453125 158.335938 370.78125 154.574219 L 302.335938 154.574219 L 361.308594 120.542969 C 357.757812 111.300781 353.433594 102.332031 348.425781 93.703125 L 242.953125 154.574219 L 236.808594 154.574219 L 236.808594 139.675781 L 339.828125 80.210938 C 337.628906 77.085938 335.304688 74.023438 332.902344 71.027344 L 236.808594 126.476562 L 236.808594 7.636719 C 231.132812 6.066406 225.414062 4.792969 219.679688 3.78125 L 219.679688 165.910156 L 372.457031 165.910156 " fill-opacity="1" fill-rule="nonzero"/><path fill="#202149" d="M 13.367188 119.464844 C 8.851562 130.953125 5.5625 142.707031 3.4375 154.574219 L 74.191406 154.574219 L 13.367188 119.464844 " fill-opacity="1" fill-rule="nonzero"/><path fill="#202149" d="M 3.46875 220.304688 C 5.488281 231.535156 8.515625 242.570312 12.539062 253.265625 L 69.640625 220.304688 L 3.46875 220.304688 " fill-opacity="1" fill-rule="nonzero"/><path fill="#202149" d="M 40.621094 302.949219 C 53.304688 319.019531 68.824219 333.285156 87.089844 344.875 C 103.097656 355.039062 120.074219 362.4375 137.449219 367.238281 L 137.449219 247.078125 L 40.621094 302.949219 " fill-opacity="1" fill-rule="nonzero"/><path fill="#202149" d="M 236.808594 367.207031 C 273.054688 357.210938 306.363281 336.261719 331.421875 305.636719 L 236.808594 251.042969 L 236.808594 367.207031 " fill-opacity="1" fill-rule="nonzero"/><path fill="#202149" d="M 332.902344 71.027344 C 320.355469 55.328125 305.078125 41.371094 287.164062 30.003906 C 271.152344 19.835938 254.179688 12.4375 236.808594 7.636719 L 236.808594 126.476562 L 332.902344 71.027344 " fill-opacity="1" fill-rule="nonzero"/><path fill="#202149" d="M 137.449219 7.675781 C 100.84375 17.765625 67.222656 39.015625 42.09375 70.136719 L 137.449219 125.160156 L 137.449219 7.675781 " fill-opacity="1" fill-rule="nonzero"/><path fill="#202149" d="M 360.445312 256.484375 C 365.179688 244.660156 368.625 232.546875 370.808594 220.304688 L 297.757812 220.304688 L 360.445312 256.484375 " fill-opacity="1" fill-rule="nonzero"/><path fill="#202149" d="M 370.78125 154.574219 C 368.695312 142.976562 365.535156 131.574219 361.308594 120.542969 L 302.335938 154.574219 L 370.78125 154.574219 " fill-opacity="1" fill-rule="nonzero"/><path fill="#e52c33" d="M 242.929688 220.304688 L 348.398438 281.171875 C 351.109375 276.519531 353.574219 271.796875 355.84375 267.007812 L 274.90625 220.304688 L 242.929688 220.304688 " fill-opacity="1" fill-rule="nonzero"/><path fill="#e52c33" d="M 236.808594 154.574219 L 242.953125 154.574219 L 348.425781 93.703125 C 345.757812 89.101562 342.90625 84.597656 339.828125 80.210938 L 236.808594 139.675781 L 236.808594 154.574219 " fill-opacity="1" fill-rule="nonzero"/><path fill="#e52c33" d="M 129.011719 154.574219 L 25.253906 94.699219 C 22.578125 99.371094 20.152344 104.113281 17.90625 108.917969 L 97.035156 154.574219 L 129.011719 154.574219 " fill-opacity="1" fill-rule="nonzero"/><path fill="#e52c33" d="M 137.449219 220.304688 L 129.023438 220.304688 L 25.246094 280.191406 C 27.890625 284.804688 30.703125 289.339844 33.75 293.738281 L 137.449219 233.910156 L 137.449219 220.304688 " fill-opacity="1" fill-rule="nonzero"/><path fill="#e52c33" d="M 372.457031 165.910156 L 219.679688 165.910156 L 219.679688 3.78125 C 197.980469 -0.0546875 175.941406 0.0117188 154.582031 3.804688 L 154.582031 165.910156 L 1.742188 165.910156 C 0.0820312 180.292969 0.132812 194.746094 1.796875 208.984375 L 154.582031 208.984375 L 154.582031 371.09375 C 176.277344 374.929688 198.320312 374.863281 219.679688 371.070312 L 219.679688 208.984375 L 372.511719 208.984375 C 374.167969 194.601562 374.113281 180.148438 372.457031 165.910156 " fill-opacity="1" fill-rule="nonzero"/></svg>