<svg xmlns="http://www.w3.org/2000/svg" xmlns:xlink="http://www.w3.org/1999/xlink" width="500" zoomAndPan="magnify" viewBox="0 0 375 374.999991" height="500" preserveAspectRatio="xMidYMid meet" version="1.0"><defs><clipPath id="438a4b72fa"><path d="M 0 0 L 374.992188 0 L 374.992188 374.992188 L 0 374.992188 Z M 0 0 " clip-rule="nonzero"/></clipPath></defs><g clip-path="url(#438a4b72fa)"><path fill="#d02f28" d="M 374.992188 187.496094 C 374.992188 291.046875 291.046875 374.992188 187.496094 374.992188 C 83.945312 374.992188 0 291.046875 0 187.496094 C 0 83.945312 83.945312 0 187.496094 0 C 291.046875 0 374.992188 83.945312 374.992188 187.496094 " fill-opacity="1" fill-rule="nonzero"/></g><path fill="#ffffff" d="M 246.660156 233.679688 C 230.535156 262.128906 199.988281 281.328125 164.957031 281.328125 C 113.132812 281.328125 71.121094 239.320312 71.121094 187.496094 C 71.121094 135.671875 113.132812 93.664062 164.957031 93.664062 C 199.988281 93.664062 230.535156 112.863281 246.660156 141.3125 C 233.015625 124.082031 211.925781 113.03125 188.246094 113.03125 C 147.121094 113.03125 113.78125 146.371094 113.78125 187.496094 C 113.78125 228.621094 147.121094 261.960938 188.246094 261.960938 C 211.925781 261.960938 233.015625 250.90625 246.660156 233.679688 " fill-opacity="1" fill-rule="nonzero"/><path fill="#ffffff" d="M 322.085938 214.6875 L 290.171875 204.191406 L 270.324219 231.296875 L 270.449219 197.699219 L 238.535156 187.203125 L 270.523438 176.9375 L 270.648438 143.339844 L 290.296875 170.59375 L 322.285156 160.328125 L 302.4375 187.4375 L 322.085938 214.6875 " fill-opacity="1" fill-rule="nonzero"/></svg>