<svg xmlns="http://www.w3.org/2000/svg" xmlns:xlink="http://www.w3.org/1999/xlink" width="400" zoomAndPan="magnify" viewBox="0 0 300 149.999998" height="200" preserveAspectRatio="xMidYMid meet" version="1.0"><defs><g/><clipPath id="ee0566679a"><path d="M 253 32 L 260 32 L 260 39 L 253 39 Z M 253 32 " clip-rule="nonzero"/></clipPath><clipPath id="6b09fc08eb"><path d="M 248.097656 12.078125 L 295.914062 41.703125 L 267.867188 86.96875 L 220.050781 57.34375 Z M 248.097656 12.078125 " clip-rule="nonzero"/></clipPath><clipPath id="6e9f2a3ced"><path d="M 248.097656 12.078125 L 295.914062 41.703125 L 267.867188 86.96875 L 220.050781 57.34375 Z M 248.097656 12.078125 " clip-rule="nonzero"/></clipPath><clipPath id="211fa32a43"><path d="M 232 37 L 240 37 L 240 44 L 232 44 Z M 232 37 " clip-rule="nonzero"/></clipPath><clipPath id="3a0f1647b0"><path d="M 248.097656 12.078125 L 295.914062 41.703125 L 267.867188 86.96875 L 220.050781 57.34375 Z M 248.097656 12.078125 " clip-rule="nonzero"/></clipPath><clipPath id="bf2d29b3c0"><path d="M 248.097656 12.078125 L 295.914062 41.703125 L 267.867188 86.96875 L 220.050781 57.34375 Z M 248.097656 12.078125 " clip-rule="nonzero"/></clipPath><clipPath id="d94de3b5e0"><path d="M 243 29 L 248 29 L 248 37 L 243 37 Z M 243 29 " clip-rule="nonzero"/></clipPath><clipPath id="10499404f0"><path d="M 248.097656 12.078125 L 295.914062 41.703125 L 267.867188 86.96875 L 220.050781 57.34375 Z M 248.097656 12.078125 " clip-rule="nonzero"/></clipPath><clipPath id="112cd10b80"><path d="M 248.097656 12.078125 L 295.914062 41.703125 L 267.867188 86.96875 L 220.050781 57.34375 Z M 248.097656 12.078125 " clip-rule="nonzero"/></clipPath><clipPath id="6a523c4fe2"><path d="M 222 50 L 235 50 L 235 65 L 222 65 Z M 222 50 " clip-rule="nonzero"/></clipPath><clipPath id="d2d8bd3bb0"><path d="M 248.097656 12.078125 L 295.914062 41.703125 L 267.867188 86.96875 L 220.050781 57.34375 Z M 248.097656 12.078125 " clip-rule="nonzero"/></clipPath><clipPath id="ddb3cd4fe7"><path d="M 248.097656 12.078125 L 295.914062 41.703125 L 267.867188 86.96875 L 220.050781 57.34375 Z M 248.097656 12.078125 " clip-rule="nonzero"/></clipPath><clipPath id="c532c03efd"><path d="M 233 55 L 280 55 L 280 81 L 233 81 Z M 233 55 " clip-rule="nonzero"/></clipPath><clipPath id="fa01307ee5"><path d="M 248.097656 12.078125 L 295.914062 41.703125 L 267.867188 86.96875 L 220.050781 57.34375 Z M 248.097656 12.078125 " clip-rule="nonzero"/></clipPath><clipPath id="a67be9d2d0"><path d="M 248.097656 12.078125 L 295.914062 41.703125 L 267.867188 86.96875 L 220.050781 57.34375 Z M 248.097656 12.078125 " clip-rule="nonzero"/></clipPath><clipPath id="e51c55678b"><path d="M 226 43 L 276 43 L 276 60 L 226 60 Z M 226 43 " clip-rule="nonzero"/></clipPath><clipPath id="64fcc8a87b"><path d="M 248.097656 12.078125 L 295.914062 41.703125 L 267.867188 86.96875 L 220.050781 57.34375 Z M 248.097656 12.078125 " clip-rule="nonzero"/></clipPath><clipPath id="45f8cc0afe"><path d="M 248.097656 12.078125 L 295.914062 41.703125 L 267.867188 86.96875 L 220.050781 57.34375 Z M 248.097656 12.078125 " clip-rule="nonzero"/></clipPath><clipPath id="3d2513644b"><path d="M 270 45 L 279 45 L 279 53 L 270 53 Z M 270 45 " clip-rule="nonzero"/></clipPath><clipPath id="144f2c7d89"><path d="M 248.097656 12.078125 L 295.914062 41.703125 L 267.867188 86.96875 L 220.050781 57.34375 Z M 248.097656 12.078125 " clip-rule="nonzero"/></clipPath><clipPath id="b7e0623d3f"><path d="M 248.097656 12.078125 L 295.914062 41.703125 L 267.867188 86.96875 L 220.050781 57.34375 Z M 248.097656 12.078125 " clip-rule="nonzero"/></clipPath><clipPath id="8e55544ab5"><path d="M 265 26 L 291 26 L 291 52 L 265 52 Z M 265 26 " clip-rule="nonzero"/></clipPath><clipPath id="67c79026f6"><path d="M 248.097656 12.078125 L 295.914062 41.703125 L 267.867188 86.96875 L 220.050781 57.34375 Z M 248.097656 12.078125 " clip-rule="nonzero"/></clipPath><clipPath id="2cff59f76d"><path d="M 248.097656 12.078125 L 295.914062 41.703125 L 267.867188 86.96875 L 220.050781 57.34375 Z M 248.097656 12.078125 " clip-rule="nonzero"/></clipPath></defs><g clip-path="url(#ee0566679a)"><g clip-path="url(#6b09fc08eb)"><g clip-path="url(#6e9f2a3ced)"><path fill="#ffffff" d="M 256.480469 32.9375 C 256.945312 32.1875 257.929688 31.957031 258.679688 32.421875 C 259.429688 32.886719 259.660156 33.871094 259.195312 34.621094 L 256.953125 38.242188 C 256.488281 38.992188 255.5 39.222656 254.753906 38.761719 C 254.003906 38.296875 253.769531 37.308594 254.234375 36.5625 Z M 256.480469 32.9375 " fill-opacity="1" fill-rule="nonzero"/></g></g></g><g clip-path="url(#211fa32a43)"><g clip-path="url(#3a0f1647b0)"><g clip-path="url(#bf2d29b3c0)"><path fill="#ffffff" d="M 233.535156 40.652344 C 232.785156 40.1875 232.554688 39.203125 233.019531 38.453125 C 233.480469 37.703125 234.46875 37.472656 235.21875 37.933594 L 238.839844 40.179688 C 239.589844 40.644531 239.820312 41.628906 239.355469 42.378906 C 238.890625 43.128906 237.90625 43.359375 237.15625 42.894531 Z M 233.535156 40.652344 " fill-opacity="1" fill-rule="nonzero"/></g></g></g><g clip-path="url(#d94de3b5e0)"><g clip-path="url(#10499404f0)"><g clip-path="url(#112cd10b80)"><path fill="#ffffff" d="M 243.371094 29.828125 C 243.140625 30.203125 243.078125 30.636719 243.171875 31.035156 L 244.207031 35.4375 C 244.300781 35.835938 244.546875 36.199219 244.921875 36.429688 C 245.671875 36.894531 246.65625 36.664062 247.121094 35.914062 C 247.351562 35.539062 247.410156 35.105469 247.316406 34.707031 L 246.285156 30.304688 C 246.191406 29.910156 245.945312 29.546875 245.570312 29.3125 C 244.820312 28.847656 243.835938 29.082031 243.371094 29.828125 Z M 243.371094 29.828125 " fill-opacity="1" fill-rule="nonzero"/></g></g></g><g clip-path="url(#6a523c4fe2)"><g clip-path="url(#d2d8bd3bb0)"><g clip-path="url(#ddb3cd4fe7)"><path fill="#ffffff" d="M 233.945312 59.769531 L 225.640625 50.855469 C 225.578125 50.792969 225.523438 50.722656 225.445312 50.675781 C 224.945312 50.363281 224.289062 50.519531 223.976562 51.019531 L 222.292969 53.734375 C 222.039062 54.144531 222.113281 54.648438 222.417969 54.992188 L 230.722656 63.90625 C 230.78125 63.96875 230.835938 64.039062 230.917969 64.089844 C 231.417969 64.398438 232.074219 64.242188 232.382812 63.742188 L 234.066406 61.027344 C 234.320312 60.617188 234.25 60.113281 233.945312 59.769531 Z M 233.945312 59.769531 " fill-opacity="1" fill-rule="nonzero"/></g></g></g><g clip-path="url(#c532c03efd)"><g clip-path="url(#fa01307ee5)"><g clip-path="url(#a67be9d2d0)"><path fill="#ffffff" d="M 278.679688 61.164062 C 278.203125 59.199219 276.9375 57.519531 275.222656 56.453125 C 273.507812 55.390625 271.632812 55.066406 269.738281 55.410156 L 236.4375 61.246094 L 233.632812 65.773438 L 249.289062 68.605469 C 250.050781 72.53125 252.324219 76.097656 255.925781 78.328125 C 262.925781 82.667969 272.242188 80.304688 276.734375 73.054688 C 279.042969 69.328125 279.617188 65.042969 278.679688 61.164062 Z M 268.0625 76.324219 C 267.609375 76.5 267.085938 76.472656 266.640625 76.199219 C 265.890625 75.734375 265.660156 74.75 266.125 74 C 266.3125 73.695312 266.589844 73.480469 266.898438 73.359375 C 268.632812 72.640625 270.21875 71.4375 271.300781 69.6875 C 272.386719 67.9375 272.757812 65.984375 272.628906 64.113281 C 272.597656 63.78125 272.667969 63.4375 272.855469 63.132812 C 273.320312 62.382812 274.304688 62.152344 275.054688 62.617188 C 275.5 62.890625 275.753906 63.347656 275.800781 63.832031 C 276.019531 66.429688 275.445312 69.070312 274.019531 71.371094 C 272.59375 73.675781 270.480469 75.363281 268.0625 76.324219 Z M 268.0625 76.324219 " fill-opacity="1" fill-rule="nonzero"/></g></g></g><g clip-path="url(#e51c55678b)"><g clip-path="url(#64fcc8a87b)"><g clip-path="url(#45f8cc0afe)"><path fill="#ffffff" d="M 267.371094 45.628906 C 266.878906 45.121094 266.324219 44.675781 265.726562 44.304688 C 263.972656 43.21875 261.890625 42.800781 259.851562 43.125 L 226.113281 48.230469 C 235.832031 58.671875 235.667969 58.339844 236.046875 59.152344 L 269.359375 53.3125 C 271.597656 52.910156 273.890625 53.296875 275.875 54.382812 Z M 251.152344 53.34375 L 248.003906 48.230469 L 254.628906 47.183594 L 257.703125 52.164062 L 251.15625 53.34375 Z M 251.152344 53.34375 " fill-opacity="1" fill-rule="nonzero"/></g></g></g><g clip-path="url(#3d2513644b)"><g clip-path="url(#144f2c7d89)"><g clip-path="url(#b7e0623d3f)"><path fill="#ffffff" d="M 276.882812 52.359375 C 277.109375 52.132812 277.320312 51.882812 277.496094 51.597656 C 278.734375 49.597656 278.117188 46.972656 276.117188 45.734375 C 274.441406 44.691406 272.332031 44.972656 270.960938 46.269531 Z M 276.882812 52.359375 " fill-opacity="1" fill-rule="nonzero"/></g></g></g><g clip-path="url(#8e55544ab5)"><g clip-path="url(#67c79026f6)"><g clip-path="url(#2cff59f76d)"><path fill="#ffffff" d="M 286.128906 35.644531 L 273 27.511719 C 270.75 26.117188 267.792969 26.8125 266.398438 29.0625 C 265.003906 31.3125 265.699219 34.265625 267.949219 35.660156 L 274.742188 39.867188 C 276.09375 40.707031 276.792969 42.179688 276.726562 43.660156 C 276.898438 43.746094 277.078125 43.820312 277.242188 43.921875 C 278.183594 44.503906 278.917969 45.296875 279.429688 46.195312 C 280.714844 42.910156 279.53125 39.078125 276.425781 37.152344 L 269.632812 32.945312 C 268.882812 32.480469 268.652344 31.496094 269.117188 30.746094 C 269.582031 29.996094 270.566406 29.765625 271.316406 30.230469 L 284.445312 38.363281 C 286.945312 39.910156 287.714844 43.191406 286.167969 45.695312 C 284.863281 47.800781 282.53125 48.867188 280.222656 48.679688 C 280.335938 49.734375 280.1875 50.824219 279.753906 51.84375 C 283.289062 52.207031 286.886719 50.601562 288.882812 47.378906 C 291.363281 43.378906 290.128906 38.125 286.128906 35.648438 Z M 286.128906 35.644531 " fill-opacity="1" fill-rule="nonzero"/></g></g></g><g fill="#ffffff" fill-opacity="1"><g transform="translate(6.912821, 114.105179)"><g><path d="M 17.40625 -40.15625 C 19.539062 -40.15625 21.628906 -39.84375 23.671875 -39.21875 C 25.710938 -38.601562 27.222656 -37.992188 28.203125 -37.390625 L 29.640625 -36.4375 L 26.015625 -29.265625 C 25.722656 -29.453125 25.320312 -29.695312 24.8125 -30 C 24.300781 -30.300781 23.34375 -30.707031 21.9375 -31.21875 C 20.539062 -31.726562 19.238281 -31.984375 18.03125 -31.984375 C 16.53125 -31.984375 15.375 -31.664062 14.5625 -31.03125 C 13.75 -30.394531 13.34375 -29.535156 13.34375 -28.453125 C 13.34375 -27.910156 13.53125 -27.40625 13.90625 -26.9375 C 14.289062 -26.476562 14.945312 -25.984375 15.875 -25.453125 C 16.800781 -24.929688 17.613281 -24.507812 18.3125 -24.1875 C 19.007812 -23.875 20.09375 -23.398438 21.5625 -22.765625 C 24.113281 -21.679688 26.289062 -20.203125 28.09375 -18.328125 C 29.894531 -16.460938 30.796875 -14.351562 30.796875 -12 C 30.796875 -9.738281 30.390625 -7.757812 29.578125 -6.0625 C 28.765625 -4.375 27.644531 -3.050781 26.21875 -2.09375 C 24.800781 -1.144531 23.234375 -0.441406 21.515625 0.015625 C 19.796875 0.484375 17.929688 0.71875 15.921875 0.71875 C 14.203125 0.71875 12.507812 0.539062 10.84375 0.1875 C 9.1875 -0.15625 7.800781 -0.585938 6.6875 -1.109375 C 5.570312 -1.640625 4.566406 -2.160156 3.671875 -2.671875 C 2.785156 -3.179688 2.132812 -3.613281 1.71875 -3.96875 L 1.09375 -4.5 L 5.59375 -12.046875 C 5.976562 -11.734375 6.503906 -11.328125 7.171875 -10.828125 C 7.835938 -10.335938 9.023438 -9.675781 10.734375 -8.84375 C 12.441406 -8.019531 13.945312 -7.609375 15.25 -7.609375 C 19.039062 -7.609375 20.9375 -8.894531 20.9375 -11.46875 C 20.9375 -12.007812 20.800781 -12.507812 20.53125 -12.96875 C 20.257812 -13.4375 19.78125 -13.898438 19.09375 -14.359375 C 18.414062 -14.828125 17.8125 -15.195312 17.28125 -15.46875 C 16.757812 -15.738281 15.898438 -16.148438 14.703125 -16.703125 C 13.503906 -17.265625 12.617188 -17.691406 12.046875 -17.984375 C 9.660156 -19.160156 7.8125 -20.628906 6.5 -22.390625 C 5.195312 -24.160156 4.546875 -26.066406 4.546875 -28.109375 C 4.546875 -31.648438 5.851562 -34.539062 8.46875 -36.78125 C 11.082031 -39.03125 14.0625 -40.15625 17.40625 -40.15625 Z M 17.40625 -40.15625 "/></g></g></g><g fill="#ffffff" fill-opacity="1"><g transform="translate(39.039161, 114.105179)"><g><path d="M 5.1875 -2.90625 C 2.457031 -5.332031 1.09375 -8.441406 1.09375 -12.234375 C 1.09375 -16.023438 2.507812 -19.140625 5.34375 -21.578125 C 8.1875 -24.023438 11.695312 -25.25 15.875 -25.25 C 19.988281 -25.25 23.453125 -24.019531 26.265625 -21.5625 C 29.085938 -19.101562 30.5 -15.992188 30.5 -12.234375 C 30.5 -8.472656 29.117188 -5.375 26.359375 -2.9375 C 23.609375 -0.5 20.113281 0.71875 15.875 0.71875 C 11.476562 0.71875 7.914062 -0.488281 5.1875 -2.90625 Z M 11.734375 -16.40625 C 10.640625 -15.320312 10.09375 -13.929688 10.09375 -12.234375 C 10.09375 -10.546875 10.617188 -9.164062 11.671875 -8.09375 C 12.722656 -7.03125 14.109375 -6.5 15.828125 -6.5 C 17.484375 -6.5 18.84375 -7.039062 19.90625 -8.125 C 20.976562 -9.207031 21.515625 -10.578125 21.515625 -12.234375 C 21.515625 -13.929688 20.960938 -15.320312 19.859375 -16.40625 C 18.765625 -17.488281 17.421875 -18.03125 15.828125 -18.03125 C 14.203125 -18.03125 12.835938 -17.488281 11.734375 -16.40625 Z M 11.734375 -16.40625 "/></g></g></g><g fill="#ffffff" fill-opacity="1"><g transform="translate(70.639623, 114.105179)"><g><path d="M 2.875 0 L 2.875 -24.53125 L 11.328125 -24.53125 L 11.328125 -21.953125 L 11.421875 -21.953125 C 13.617188 -24.148438 15.960938 -25.25 18.453125 -25.25 C 19.660156 -25.25 20.863281 -25.085938 22.0625 -24.765625 C 23.257812 -24.441406 24.40625 -23.945312 25.5 -23.28125 C 26.601562 -22.613281 27.5 -21.664062 28.1875 -20.4375 C 28.875 -19.207031 29.21875 -17.78125 29.21875 -16.15625 L 29.21875 0 L 20.75 0 L 20.75 -13.859375 C 20.75 -15.140625 20.34375 -16.253906 19.53125 -17.203125 C 18.71875 -18.160156 17.660156 -18.640625 16.359375 -18.640625 C 15.078125 -18.640625 13.914062 -18.144531 12.875 -17.15625 C 11.84375 -16.175781 11.328125 -15.078125 11.328125 -13.859375 L 11.328125 0 Z M 2.875 0 "/></g></g></g><g fill="#ffffff" fill-opacity="1"><g transform="translate(102.240084, 114.105179)"><g><path d="M 2.875 -39.4375 L 14.296875 -39.4375 C 19.773438 -39.4375 24.457031 -37.5625 28.34375 -33.8125 C 32.238281 -30.070312 34.1875 -25.382812 34.1875 -19.75 C 34.1875 -14.070312 32.25 -9.359375 28.375 -5.609375 C 24.5 -1.867188 19.804688 0 14.296875 0 L 2.875 0 Z M 11.859375 -8.03125 L 13.25 -8.03125 C 16.53125 -8.03125 19.210938 -9.132812 21.296875 -11.34375 C 23.390625 -13.5625 24.453125 -16.347656 24.484375 -19.703125 C 24.484375 -23.046875 23.4375 -25.832031 21.34375 -28.0625 C 19.257812 -30.289062 16.5625 -31.40625 13.25 -31.40625 L 11.859375 -31.40625 Z M 11.859375 -8.03125 "/></g></g></g><g fill="#ffffff" fill-opacity="1"><g transform="translate(137.521692, 114.105179)"><g><path d="M 6.875 -36.515625 C 7.738281 -37.378906 8.773438 -37.8125 9.984375 -37.8125 C 11.203125 -37.8125 12.238281 -37.378906 13.09375 -36.515625 C 13.957031 -35.660156 14.390625 -34.628906 14.390625 -33.421875 C 14.390625 -32.210938 13.957031 -31.175781 13.09375 -30.3125 C 12.238281 -29.445312 11.203125 -29.015625 9.984375 -29.015625 C 8.773438 -29.015625 7.738281 -29.445312 6.875 -30.3125 C 6.019531 -31.175781 5.59375 -32.210938 5.59375 -33.421875 C 5.59375 -34.628906 6.019531 -35.660156 6.875 -36.515625 Z M 18.203125 -36.515625 C 19.066406 -37.378906 20.101562 -37.8125 21.3125 -37.8125 C 22.53125 -37.8125 23.566406 -37.378906 24.421875 -36.515625 C 25.285156 -35.660156 25.71875 -34.628906 25.71875 -33.421875 C 25.71875 -32.210938 25.285156 -31.175781 24.421875 -30.3125 C 23.566406 -29.445312 22.53125 -29.015625 21.3125 -29.015625 C 20.101562 -29.015625 19.066406 -29.445312 18.203125 -30.3125 C 17.347656 -31.175781 16.921875 -32.210938 16.921875 -33.421875 C 16.921875 -34.628906 17.347656 -35.660156 18.203125 -36.515625 Z M 2.390625 -24.53125 L 2.390625 -10.8125 C 2.390625 -6.726562 3.445312 -3.785156 5.5625 -1.984375 C 7.6875 -0.179688 11.054688 0.71875 15.671875 0.71875 C 20.296875 0.71875 23.664062 -0.179688 25.78125 -1.984375 C 27.90625 -3.785156 28.96875 -6.726562 28.96875 -10.8125 L 28.96875 -24.53125 L 20.515625 -24.53125 L 20.515625 -12.859375 C 20.515625 -10.441406 20.144531 -8.722656 19.40625 -7.703125 C 18.675781 -6.679688 17.429688 -6.171875 15.671875 -6.171875 C 13.921875 -6.171875 12.679688 -6.679688 11.953125 -7.703125 C 11.222656 -8.722656 10.859375 -10.441406 10.859375 -12.859375 L 10.859375 -24.53125 Z M 2.390625 -24.53125 "/></g></g></g><g fill="#ffffff" fill-opacity="1"><g transform="translate(168.883126, 114.105179)"><g><path d="M 4.53125 -3.03125 C 2.238281 -5.539062 1.09375 -8.609375 1.09375 -12.234375 C 1.09375 -15.867188 2.238281 -18.945312 4.53125 -21.46875 C 6.832031 -23.988281 9.753906 -25.25 13.296875 -25.25 C 16.546875 -25.25 19.222656 -24.226562 21.328125 -22.1875 L 21.328125 -41.125 L 29.78125 -41.125 L 29.78125 0 L 21.421875 0 L 21.421875 -2.765625 L 21.328125 -2.765625 C 19.222656 -0.441406 16.546875 0.71875 13.296875 0.71875 C 9.753906 0.71875 6.832031 -0.53125 4.53125 -3.03125 Z M 11.734375 -16.40625 C 10.640625 -15.320312 10.09375 -13.929688 10.09375 -12.234375 C 10.09375 -10.546875 10.617188 -9.164062 11.671875 -8.09375 C 12.722656 -7.03125 14.109375 -6.5 15.828125 -6.5 C 17.484375 -6.5 18.84375 -7.039062 19.90625 -8.125 C 20.976562 -9.207031 21.515625 -10.578125 21.515625 -12.234375 C 21.515625 -13.929688 20.960938 -15.320312 19.859375 -16.40625 C 18.765625 -17.488281 17.421875 -18.03125 15.828125 -18.03125 C 14.203125 -18.03125 12.835938 -17.488281 11.734375 -16.40625 Z M 11.734375 -16.40625 "/></g></g></g><g fill="#ffffff" fill-opacity="1"><g transform="translate(201.535344, 114.105179)"><g><path d="M 6.875 -36.515625 C 7.738281 -37.378906 8.773438 -37.8125 9.984375 -37.8125 C 11.203125 -37.8125 12.238281 -37.378906 13.09375 -36.515625 C 13.957031 -35.660156 14.390625 -34.628906 14.390625 -33.421875 C 14.390625 -32.210938 13.957031 -31.175781 13.09375 -30.3125 C 12.238281 -29.445312 11.203125 -29.015625 9.984375 -29.015625 C 8.773438 -29.015625 7.738281 -29.445312 6.875 -30.3125 C 6.019531 -31.175781 5.59375 -32.210938 5.59375 -33.421875 C 5.59375 -34.628906 6.019531 -35.660156 6.875 -36.515625 Z M 18.203125 -36.515625 C 19.066406 -37.378906 20.101562 -37.8125 21.3125 -37.8125 C 22.53125 -37.8125 23.566406 -37.378906 24.421875 -36.515625 C 25.285156 -35.660156 25.71875 -34.628906 25.71875 -33.421875 C 25.71875 -32.210938 25.285156 -31.175781 24.421875 -30.3125 C 23.566406 -29.445312 22.53125 -29.015625 21.3125 -29.015625 C 20.101562 -29.015625 19.066406 -29.445312 18.203125 -30.3125 C 17.347656 -31.175781 16.921875 -32.210938 16.921875 -33.421875 C 16.921875 -34.628906 17.347656 -35.660156 18.203125 -36.515625 Z M 2.390625 -24.53125 L 2.390625 -10.8125 C 2.390625 -6.726562 3.445312 -3.785156 5.5625 -1.984375 C 7.6875 -0.179688 11.054688 0.71875 15.671875 0.71875 C 20.296875 0.71875 23.664062 -0.179688 25.78125 -1.984375 C 27.90625 -3.785156 28.96875 -6.726562 28.96875 -10.8125 L 28.96875 -24.53125 L 20.515625 -24.53125 L 20.515625 -12.859375 C 20.515625 -10.441406 20.144531 -8.722656 19.40625 -7.703125 C 18.675781 -6.679688 17.429688 -6.171875 15.671875 -6.171875 C 13.921875 -6.171875 12.679688 -6.679688 11.953125 -7.703125 C 11.222656 -8.722656 10.859375 -10.441406 10.859375 -12.859375 L 10.859375 -24.53125 Z M 2.390625 -24.53125 "/></g></g></g><g fill="#ffffff" fill-opacity="1"><g transform="translate(232.896778, 114.105179)"><g><path d="M 30.890625 -24.53125 L 19.21875 -12.8125 L 32.03125 0 L 21.140625 0 L 11.328125 -9.796875 L 11.328125 0 L 2.875 0 L 2.875 -41.125 L 11.328125 -41.125 L 11.328125 -15.96875 L 19.890625 -24.53125 Z M 30.890625 -24.53125 "/></g></g></g></svg>